<svg width="800" height="800" xmlns="http://www.w3.org/2000/svg">
  <defs>
    <style>
      .contour-line {
        fill: none;
        stroke: #C7C4BD;
        stroke-width: 1;
        opacity: 0.11;
      }
    </style>
  </defs>
  
  <!-- Smooth, flowing contour lines with organic curves -->
  <path class="contour-line" d="M0,200 Q150,180 300,200 T600,200 T800,200" />
  <path class="contour-line" d="M0,250 Q100,230 200,250 Q300,270 400,250 Q500,230 600,250 T800,250" />
  <path class="contour-line" d="M0,300 Q120,280 240,300 Q360,320 480,300 Q600,280 720,300 T800,300" />
  <path class="contour-line" d="M0,350 Q80,330 160,350 Q240,370 320,350 Q400,330 480,350 Q560,370 640,350 Q720,330 800,350" />
  <path class="contour-line" d="M0,400 Q140,380 280,400 Q420,420 560,400 Q700,380 800,400" />
  <path class="contour-line" d="M0,450 Q100,430 200,450 Q300,470 400,450 Q500,430 600,450 T800,450" />
  <path class="contour-line" d="M0,500 Q120,480 240,500 Q360,520 480,500 Q600,480 720,500 T800,500" />
  <path class="contour-line" d="M0,550 Q80,530 160,550 Q240,570 320,550 Q400,530 480,550 Q560,570 640,550 Q720,530 800,550" />
  <path class="contour-line" d="M0,600 Q140,580 280,600 Q420,620 560,600 Q700,580 800,600" />
  
  <!-- Additional flowing lines for depth -->
  <path class="contour-line" d="M0,150 Q200,130 400,150 Q600,170 800,150" />
  <path class="contour-line" d="M0,650 Q200,630 400,650 Q600,670 800,650" />
  
  <!-- Subtle vertical flow -->
  <path class="contour-line" d="M150,0 Q150,200 150,400 Q150,600 150,800" />
  <path class="contour-line" d="M400,0 Q400,200 400,400 Q400,600 400,800" />
  <path class="contour-line" d="M650,0 Q650,200 650,400 Q650,600 650,800" />
</svg>

